<svg width="215" height="160" viewBox="0 0 215 160" fill="none" xmlns="http://www.w3.org/2000/svg">
<g clip-path="url(#clip0_11576_10353)">
<path fill-rule="evenodd" clip-rule="evenodd" d="M93.0991 138.65C93.0991 138.65 93.1582 138.52 93.17 138.473C93.4299 137.705 93.3708 136.535 93.3 135.732C93.2172 134.704 93.997 133.782 95.025 133.7C95.722 133.641 96.4073 133.983 96.7736 134.574C97.2226 135.212 97.707 135.874 98.215 136.476C98.2032 135.921 98.1678 135.377 98.156 134.822C98.156 134.751 98.156 134.692 98.156 134.621C98.3332 132.955 98.4041 131.277 98.2977 129.612C98.2387 128.666 98.1087 127.733 97.8842 126.811C95.5921 126.351 93.2645 126.303 90.9842 126.835C88.3612 127.449 86.0455 128.773 84.0133 130.521C83.3989 131.077 82.9381 131.75 82.7136 132.554C82.4891 133.369 82.5128 134.243 82.6546 135.07C83.5525 136.263 85.1003 138.284 86.3172 139.205C86.2463 138.78 86.2109 138.355 86.1873 137.918C86.14 136.89 86.9434 136.004 87.9832 135.956C88.4321 135.933 88.8811 136.086 89.2356 136.37C90.1926 137.138 91.5749 138.189 92.7446 138.532C92.8037 138.544 92.9928 138.603 93.0991 138.638M135.303 138.083C135.421 137.374 135.421 136.606 135.409 135.909C135.409 135.838 135.409 135.779 135.409 135.708C135.61 133.806 135.693 131.892 135.563 129.99C135.492 128.855 135.326 127.721 135.054 126.622C132.372 126.067 129.655 125.996 126.973 126.622C123.96 127.331 121.302 128.844 118.974 130.852C118.242 131.514 117.698 132.317 117.426 133.274C117.155 134.255 117.19 135.295 117.367 136.299C118.537 137.847 120.238 140.092 121.822 141.202C121.892 140.623 121.881 139.985 121.857 139.418C121.81 138.39 122.625 137.504 123.653 137.457C124.102 137.433 124.563 137.587 124.905 137.87C126.016 138.756 127.611 139.962 128.97 140.375C129.088 140.411 129.501 140.517 129.596 140.47C129.643 140.434 129.738 140.198 129.75 140.139C130.057 139.229 129.986 137.882 129.903 136.925C129.82 135.897 130.6 134.976 131.628 134.893C132.325 134.834 133.01 135.165 133.377 135.767C133.932 136.547 134.582 137.433 135.291 138.095L135.303 138.083ZM187.265 123.929C187.655 125.004 188.175 126.02 188.754 127C189.711 128.619 190.845 130.12 192.062 131.549C192.133 131.62 192.192 131.703 192.251 131.786C192.641 132.364 193.078 133.002 193.575 133.511C193.787 132.554 193.811 131.443 193.835 130.474C193.823 129.777 194.189 129.139 194.78 128.796C195.678 128.288 196.824 128.607 197.344 129.505C197.816 130.332 198.525 131.478 199.293 132.057C199.34 132.093 199.553 132.246 199.612 132.246C199.73 132.223 200.002 131.916 200.073 131.821C200.971 130.722 201.597 128.808 202.011 127.449C202.141 127.012 202.436 126.634 202.814 126.398C203.688 125.854 204.858 126.126 205.402 127C205.709 127.485 206.051 128.017 206.441 128.454C207.115 126.634 207.245 123.81 207.339 121.873C206.477 119.97 205.118 118.612 202.979 118.316C202.979 118.316 202.956 118.316 202.944 118.316C199.896 117.974 196.812 118.234 193.941 119.356C191.389 120.349 189.179 121.955 187.289 123.929H187.265ZM159.216 131.679C159.216 131.679 159.216 131.644 159.216 131.62C159.287 130.592 160.185 129.801 161.213 129.871C161.674 129.907 162.099 130.096 162.418 130.415C162.773 130.746 164.71 132.494 165.136 132.329C165.478 132.175 165.561 129.694 165.561 129.281C165.561 128.241 166.412 127.414 167.451 127.414C168.149 127.414 168.775 127.804 169.094 128.418C169.306 128.808 169.519 129.21 169.755 129.588C169.838 129.21 169.897 128.844 169.944 128.466C169.885 126.776 169.72 125.063 169.318 123.42C169.094 122.511 168.798 121.589 168.349 120.762C166.388 120.502 164.415 120.597 162.477 120.963C160.162 121.412 157.929 122.251 155.825 123.326C155.672 123.799 155.613 124.283 155.625 124.779C155.636 125.665 155.884 126.563 156.18 127.39C157.042 128.796 158.058 130.462 159.193 131.679H159.216ZM67.4131 128.572C65.4163 128.182 63.3959 128.146 61.411 128.619C59.0834 129.163 57.0276 130.332 55.2317 131.88C54.7 132.353 54.322 132.932 54.1211 133.617C53.9321 134.302 53.9439 135.047 54.062 135.744C54.8654 136.807 55.9524 138.225 56.9685 139.123C56.9095 138.886 56.874 138.638 56.8622 138.39C56.8149 137.362 57.6302 136.476 58.6581 136.429C59.1071 136.405 59.556 136.559 59.9105 136.842C60.3831 137.22 62.628 138.981 63.2069 138.863C63.3959 138.556 63.2778 136.795 63.2423 136.429C63.1596 135.401 63.9394 134.479 64.9674 134.397C65.6644 134.338 66.3497 134.68 66.716 135.271C67.0232 135.708 67.3304 136.133 67.6494 136.559C67.6257 136.24 67.6021 135.921 67.6021 135.602C67.6021 135.531 67.6021 135.472 67.6021 135.401C67.7557 133.924 67.8266 132.412 67.7203 130.923C67.6612 130.131 67.5667 129.34 67.3776 128.56L67.4131 128.572ZM207.481 116.166C207.54 106.442 206.429 96.5411 203.866 87.1481C201.562 78.7003 197.982 70.3825 192.665 63.3762C190.491 66.3654 187.513 68.6221 184.253 70.3471C175.982 74.7068 165.065 76.1128 155.814 76.5972C154.786 76.6563 153.9 75.8411 153.84 74.8132C153.793 73.7853 154.585 72.8991 155.625 72.84C164.285 72.3793 174.753 71.1032 182.504 67.0152C187.738 64.2505 191.59 60.1861 192.393 54.1368C193.22 47.8984 192.677 41.5537 190.869 35.5398C189.061 29.5259 185.989 23.9374 181.878 19.1877C177.766 14.438 172.686 10.5981 166.991 7.93974C161.319 5.29316 155.128 3.86354 148.866 3.7572C138.304 4.1471 127.576 6.58101 119.151 13.2802C110.952 19.8021 106.497 29.1124 104.264 39.167C104.04 40.1713 103.036 40.8093 102.031 40.5967C101.027 40.3722 100.377 39.3679 100.602 38.3636C101.842 32.8105 103.733 27.3756 106.556 22.425C101.925 23.5947 97.7542 25.9223 94.0561 28.9233C87.8886 33.9093 82.9854 40.703 79.0273 47.5321C78.5075 48.4301 77.3496 48.7373 76.4634 48.2174C75.5655 47.6975 75.2583 46.5396 75.7782 45.6535C79.8426 38.659 84.8285 31.7708 91.0551 26.5485C87.2624 27.5528 83.5171 28.8406 79.9843 30.5656C77.7513 31.6644 75.6009 32.9405 73.616 34.441C73.5451 34.5001 73.4742 34.5591 73.4033 34.6064C71.1821 36.3196 69.1972 38.3045 67.5785 40.5967C66.9759 41.4355 65.8062 41.6364 64.9674 41.0456C64.1285 40.4431 63.9158 39.2734 64.5184 38.4345C64.9792 37.7847 65.4636 37.1467 65.9835 36.5323C60.7021 38.1155 55.598 40.384 51.1319 43.645C47.7409 46.1143 44.8108 49.0917 42.4478 52.5535L42.4242 52.5772C40.9473 54.7511 39.7185 57.0787 38.726 59.5008C38.3361 60.446 37.2373 60.9186 36.2803 60.5287C35.3351 60.1388 34.8625 59.04 35.2524 58.083C35.6187 57.185 36.0204 56.2989 36.4457 55.4246C35.8904 55.7436 35.3469 56.0744 34.8152 56.4289C32.6413 57.8821 30.7154 59.6426 29.0022 61.6157C28.7777 61.8756 28.4823 62.0765 28.1515 62.171C23.39 64.1205 18.6994 66.4953 14.5287 69.5318C11.2323 71.9303 8.20764 74.7895 5.98641 78.2159C5.98641 78.2395 5.96278 78.2632 5.95096 78.2868C5.10028 79.5392 4.15507 81.276 4.27322 82.8356C4.36774 84.088 5.20661 85.0214 6.19908 85.7067C6.19908 85.7067 6.22271 85.7185 6.22271 85.7303C6.24634 85.7303 6.25815 85.7539 6.28178 85.7658C11.185 89.6293 16.3837 93.1975 21.925 96.0921C25.7885 98.1125 29.8411 99.8139 34.0473 100.96C34.1181 98.8451 34.3072 96.7302 34.5907 94.6389C34.7325 93.611 35.6777 92.8903 36.7056 93.032C37.7336 93.1738 38.4543 94.119 38.3125 95.1469C37.9462 97.8408 37.7572 100.546 37.7808 103.264C37.7808 103.311 37.7808 103.37 37.7808 103.418C37.8517 108.309 38.6551 113.13 40.392 117.702C42.5778 123.432 46.0868 128.359 50.5529 132.53C50.9547 131.171 51.7108 130.025 52.7742 129.08H52.7978C55.0663 127.107 57.6538 125.654 60.584 124.968C63.136 124.377 65.7353 124.413 68.2992 124.921C66.5388 122.215 65.0619 119.332 63.9158 116.308C60.6076 107.647 60.135 98.3843 61.3756 89.2512C61.5173 88.2233 62.4626 87.5026 63.4905 87.6444C64.5184 87.7861 65.2391 88.7313 65.0973 89.7593C63.9394 98.2543 64.353 106.903 67.4367 114.973C69.9297 121.495 73.9468 127.083 79.0628 131.797C79.0864 131.715 79.0982 131.632 79.1218 131.561C79.5472 130.049 80.3861 128.773 81.5558 127.733H81.5794C84.0724 125.559 86.9316 123.964 90.1571 123.208C93.3827 122.452 96.6791 122.629 99.8691 123.432C99.9282 123.444 99.9873 123.468 100.046 123.491C100.105 123.113 100.153 122.735 100.2 122.345C98.8058 119.947 97.6125 117.442 96.62 114.843C92.8864 105.072 92.3547 94.6153 93.7489 84.3243C93.8907 83.2964 94.8359 82.5757 95.8638 82.7175C96.8917 82.8592 97.6125 83.8045 97.4707 84.8324C96.1592 94.4971 96.6318 104.339 100.129 113.519C103.012 121.093 107.714 127.532 113.681 132.967C113.728 132.743 113.776 132.506 113.846 132.282C114.319 130.616 115.241 129.21 116.528 128.064H116.552C119.352 125.63 122.542 123.834 126.158 122.995C129.761 122.156 133.471 122.345 137.039 123.255C137.205 123.29 137.358 123.361 137.5 123.444C138.245 118.694 138.375 113.886 137.866 109.101C137.051 101.48 134.594 94.249 131.014 87.4908C130.529 86.5692 130.872 85.4349 131.794 84.9505C132.715 84.4661 133.849 84.8087 134.334 85.7303C138.15 92.9021 140.726 100.606 141.6 108.699C141.706 109.68 141.789 110.672 141.836 111.653C142.699 111.629 143.561 111.594 144.412 111.534C144.471 111.534 144.53 111.534 144.577 111.523C145.948 111.428 147.307 111.275 148.665 111.05C151.04 110.66 153.38 110.058 155.601 109.148C155.684 109.112 155.766 109.077 155.849 109.053C158.248 108.309 160.528 107.246 162.584 105.792C164.285 104.587 165.797 103.146 167.085 101.503C165.951 97.6754 165.183 93.7528 164.734 89.7829C164.616 88.755 165.372 87.8216 166.4 87.7034C167.428 87.5853 168.361 88.3414 168.468 89.3694C169.33 96.9665 171.41 104.315 175.037 111.062C177.317 115.292 180.153 119.179 183.449 122.676C183.532 122.499 183.65 122.333 183.792 122.192C186.226 119.439 189.12 117.229 192.57 115.882C195.997 114.547 199.707 114.205 203.346 114.606C203.369 114.606 203.381 114.606 203.405 114.606C204.894 114.807 206.276 115.303 207.493 116.178L207.481 116.166ZM168.468 105.603C167.333 106.797 166.093 107.872 164.746 108.829C162.383 110.495 159.772 111.724 157.019 112.586C154.526 113.602 151.915 114.287 149.256 114.725C148.571 114.843 147.886 114.937 147.189 115.02C148.051 117.288 149.103 119.521 150.461 121.554C150.922 122.251 151.43 122.924 151.974 123.562C152.092 122.723 152.328 121.92 152.706 121.152C152.883 120.809 153.155 120.514 153.498 120.337C156.097 118.943 158.886 117.856 161.792 117.288C164.462 116.769 167.18 116.721 169.862 117.206C170.275 117.277 170.653 117.489 170.937 117.808C170.996 117.879 171.055 117.962 171.102 118.033C172.012 119.392 172.603 120.963 172.981 122.546C173.04 122.771 173.087 123.007 173.135 123.231C174.517 122.038 175.273 120.538 175.379 118.706C174.044 116.816 172.827 114.843 171.729 112.811C170.476 110.495 169.389 108.084 168.468 105.615V105.603ZM153.132 129.552C150.78 128.028 148.878 125.925 147.33 123.61C145.629 121.046 144.329 118.198 143.301 115.315C142.841 115.339 142.368 115.351 141.907 115.363C141.848 121.01 140.962 126.599 139.391 132.01C139.391 133.345 139.296 134.68 139.166 136.004C139.166 137.386 139.083 139.182 138.505 140.446C138.15 141.226 137.595 141.864 136.768 142.159C136.685 142.195 136.614 142.218 136.531 142.242C135.633 142.49 134.759 142.242 133.968 141.781C133.743 141.639 133.519 141.486 133.318 141.32C132.94 142.431 132.266 143.353 131.191 143.849C130.139 144.333 128.993 144.274 127.906 143.955C127.008 143.683 126.134 143.234 125.331 142.75C125.272 142.963 125.189 143.175 125.106 143.376C124.645 144.392 123.877 145.078 122.755 145.231C121.798 145.361 120.865 145.007 120.073 144.51C117.958 143.187 115.772 140.363 114.284 138.378C110.136 135.047 106.367 131.242 103.225 126.941C102.917 128.454 102.539 129.942 102.114 131.407C102.114 132.589 102.031 133.747 101.913 134.917C101.913 136.925 101.653 140.281 99.1366 140.67C98.2387 140.812 97.3643 140.422 96.6554 139.903C96.2892 140.836 95.6748 141.592 94.7414 142.029C93.7607 142.478 92.6974 142.431 91.6813 142.124C90.9724 141.911 90.2753 141.58 89.6373 141.202C89.082 142.998 87.8059 143.683 85.9628 143.163C83.7297 142.549 80.9296 138.969 79.559 137.15C76.9124 135.023 74.4431 132.672 72.2218 130.108C72.021 130.935 71.8083 131.75 71.572 132.554C71.572 133.605 71.5011 134.645 71.3948 135.696C71.3948 137.61 71.123 140.67 68.7364 141.049C67.9566 141.167 67.2004 140.871 66.5624 140.458C66.1489 141.403 65.4518 142.088 64.4475 142.407C63.0651 142.844 61.5173 142.289 60.2886 141.616C59.7096 143.234 58.4691 143.754 56.8149 143.293C54.7591 142.726 52.2307 139.513 50.9783 137.835C44.7045 132.79 39.7658 126.575 36.8829 119.013C35.1461 114.465 34.2599 109.691 34.0591 104.835C29.2267 103.618 24.5834 101.704 20.1881 99.4004C14.446 96.3993 9.05833 92.713 3.97784 88.7077C2.04017 87.3254 0.70506 85.5058 0.527834 83.0719C0.350607 80.5907 1.48486 78.1686 2.84359 76.1483C2.85541 76.1246 2.86722 76.1128 2.87904 76.101C5.36021 72.2966 8.66843 69.1183 12.3311 66.4599C16.6673 63.3053 21.5233 60.8359 26.462 58.7919C28.3169 56.7006 30.4082 54.8338 32.7358 53.2861C34.8979 51.8446 37.2491 50.6867 39.7185 49.8833C42.2587 46.2797 45.3661 43.1723 48.9343 40.573C55.6216 35.7052 63.5614 32.8578 71.6074 31.2273C73.7223 29.6559 75.9908 28.309 78.3539 27.1511C85.0058 23.8901 92.4375 22.0351 99.7274 20.8891C102.799 19.4476 106.037 18.4788 109.404 18.0416C111.531 15.1469 114.024 12.5476 116.836 10.3146C125.91 3.10737 137.358 0.413528 148.76 0C148.807 0 148.866 0 148.914 0C155.707 0.118151 162.418 1.66593 168.574 4.537C174.753 7.41988 180.259 11.5788 184.713 16.7302C189.168 21.8816 192.499 27.9309 194.461 34.4646C196.422 40.9866 196.977 47.8629 196.103 54.633C195.867 56.4407 195.394 58.1893 194.673 59.8553C200.829 67.4996 204.917 76.7272 207.481 86.1557C210.6 97.5808 211.664 109.809 211.085 121.625V121.648C210.978 124.2 210.777 127.863 209.761 130.202C209.383 131.065 208.828 131.88 207.954 132.317C206.938 132.825 205.921 132.695 204.964 132.116C204.775 131.998 204.586 131.868 204.421 131.726C204.031 132.589 203.57 133.44 202.979 134.172C202.259 135.058 201.349 135.755 200.203 135.956C199.033 136.157 197.958 135.779 197.025 135.07C196.954 135.318 196.859 135.578 196.741 135.814C196.363 136.653 195.772 137.327 194.886 137.634C193.976 137.953 193.067 137.764 192.251 137.28C191.046 136.559 189.959 135.117 189.168 133.971C188.305 132.955 187.49 131.916 186.746 130.84C183.685 128.336 180.85 125.559 178.31 122.523C177.364 124.685 175.698 126.28 173.666 127.438C173.69 127.78 173.702 128.111 173.713 128.454C173.713 128.584 173.713 128.702 173.702 128.832C173.524 130.096 173.229 131.715 172.544 132.802C172.083 133.534 171.445 134.066 170.571 134.219C169.838 134.349 169.165 134.16 168.55 133.77C168.125 134.704 167.475 135.472 166.494 135.838C164.994 136.417 163.411 135.779 162.135 134.964C161.591 135.779 160.8 136.228 159.795 136.193C158.956 136.169 158.2 135.767 157.562 135.259C155.884 133.912 154.266 131.396 153.132 129.552Z" fill="black"/>
<path fill-rule="evenodd" clip-rule="evenodd" d="M97.9314 126.752C95.6157 126.28 93.2645 126.232 90.9605 126.764C88.3258 127.379 85.9982 128.702 83.966 130.462C83.3398 131.029 82.879 131.715 82.6427 132.53C82.4064 133.357 82.4418 134.255 82.5836 135.094C83.2453 135.968 85.1711 138.485 86.4117 139.359C86.4117 139.347 86.4117 139.324 86.4117 139.312C86.329 138.851 86.2817 138.378 86.2581 137.918C86.2109 136.925 86.9907 136.074 87.9831 136.039C88.4203 136.015 88.8574 136.157 89.1883 136.441C90.1335 137.197 91.5513 138.272 92.721 138.627C92.8155 138.65 93.0991 138.733 93.1227 138.756C93.1581 138.709 93.2054 138.579 93.229 138.52C93.489 137.752 93.4299 136.547 93.359 135.744C93.2763 134.751 94.0206 133.877 95.0131 133.794C95.6984 133.735 96.3482 134.066 96.7027 134.645C96.8917 134.917 97.7306 136.074 98.2741 136.701C98.2741 136.086 98.215 135.425 98.215 134.858C98.215 134.798 98.215 134.728 98.215 134.668C98.3922 133.003 98.4631 131.313 98.3568 129.647C98.2977 128.69 98.1677 127.721 97.9314 126.788M135.125 126.552C132.42 125.984 129.679 125.913 126.973 126.552C123.948 127.26 121.278 128.773 118.939 130.793C118.194 131.467 117.639 132.282 117.367 133.251C117.084 134.243 117.119 135.306 117.308 136.323C118.419 137.788 120.321 140.269 121.881 141.32C121.975 140.706 121.952 139.926 121.928 139.406C121.881 138.414 122.66 137.563 123.653 137.528C124.09 137.504 124.527 137.646 124.858 137.929C125.957 138.804 127.587 140.033 128.946 140.446C129.076 140.482 129.501 140.6 129.631 140.541C129.702 140.493 129.797 140.245 129.82 140.174C130.128 139.265 130.057 137.882 129.986 136.937C129.903 135.945 130.647 135.07 131.64 134.987C132.325 134.928 132.975 135.259 133.318 135.838C133.826 136.535 134.594 137.61 135.338 138.272C135.468 137.528 135.48 136.606 135.468 135.956C135.468 135.897 135.468 135.826 135.468 135.767C135.669 133.877 135.752 131.939 135.622 130.037C135.539 128.891 135.385 127.733 135.102 126.611L135.125 126.552ZM187.183 123.905C187.573 124.992 188.104 126.032 188.683 127.036C189.64 128.655 190.786 130.179 191.991 131.597C192.062 131.667 192.121 131.75 192.18 131.833C192.547 132.376 193.067 133.133 193.598 133.664C193.835 132.684 193.87 131.348 193.894 130.486C193.882 129.824 194.224 129.198 194.803 128.867C195.666 128.371 196.777 128.678 197.273 129.553C197.745 130.38 198.466 131.549 199.234 132.116C199.305 132.164 199.518 132.317 199.6 132.317C199.742 132.294 200.026 131.975 200.108 131.868C200.995 130.769 201.656 128.808 202.058 127.473C202.188 127.048 202.46 126.693 202.838 126.457C203.677 125.937 204.799 126.197 205.331 127.036C205.602 127.473 206.028 128.135 206.453 128.584C207.138 126.835 207.304 123.704 207.386 121.861C206.512 119.923 205.13 118.553 202.968 118.245C202.956 118.245 202.944 118.245 202.932 118.245C199.872 117.903 196.777 118.163 193.894 119.285C191.306 120.29 189.085 121.908 187.183 123.905ZM155.79 123.279C155.625 123.763 155.565 124.271 155.577 124.779C155.589 125.665 155.837 126.587 156.144 127.414C156.924 128.69 158.129 130.64 159.275 131.833C159.275 131.762 159.275 131.691 159.287 131.62C159.358 130.628 160.221 129.872 161.213 129.931C161.65 129.966 162.064 130.143 162.371 130.462C162.69 130.758 164.675 132.577 165.171 132.388C165.573 132.211 165.632 129.647 165.644 129.281C165.644 128.288 166.471 127.485 167.463 127.485C168.125 127.485 168.739 127.863 169.046 128.454C169.271 128.867 169.519 129.34 169.803 129.765C169.909 129.328 169.98 128.879 170.039 128.466C169.98 126.776 169.814 125.039 169.413 123.397C169.188 122.475 168.881 121.53 168.42 120.691C166.435 120.419 164.45 120.514 162.489 120.892C160.15 121.341 157.905 122.192 155.79 123.267V123.279ZM54.0029 135.779C54.5346 136.476 56.0469 138.449 57.0985 139.335C57.0039 139.028 56.9449 138.721 56.9331 138.39C56.8858 137.398 57.6656 136.547 58.6581 136.512C59.0952 136.488 59.5324 136.63 59.8632 136.913C60.3358 137.291 62.6516 139.123 63.2541 138.946C63.4904 138.662 63.3487 136.795 63.325 136.441C63.2423 135.448 63.9867 134.574 64.9791 134.491C65.6644 134.432 66.3142 134.763 66.6687 135.342C66.8223 135.566 67.3303 136.275 67.7557 136.831C67.7084 136.429 67.6848 136.039 67.6848 135.637C67.6848 135.578 67.6848 135.507 67.6848 135.448C67.8384 133.971 67.9093 132.447 67.8029 130.959C67.7439 130.143 67.6375 129.328 67.4485 128.536C65.4281 128.135 63.3841 128.099 61.3755 128.572C59.0361 129.115 56.9685 130.297 55.1608 131.856C54.6291 132.341 54.2274 132.92 54.0384 133.617C53.8375 134.326 53.8611 135.082 53.9793 135.791L54.0029 135.779ZM183.473 122.759C183.555 122.558 183.685 122.357 183.839 122.204C186.261 119.451 189.156 117.253 192.582 115.918C196.02 114.583 199.671 114.24 203.322 114.654C203.334 114.654 203.358 114.654 203.369 114.654C204.905 114.855 206.311 115.386 207.54 116.296C207.599 106.537 206.489 96.5412 203.925 87.1245C201.609 78.6413 198.005 70.288 192.653 63.258C190.479 66.2827 187.49 68.5512 184.217 70.2762C175.982 74.6242 164.994 76.042 155.814 76.5264C154.821 76.5737 153.97 75.8057 153.911 74.8132C153.864 73.8207 154.632 72.97 155.625 72.911C164.238 72.4502 174.8 71.1505 182.528 67.0743C187.785 64.2978 191.649 60.2216 192.452 54.1486C193.279 47.8984 192.736 41.5537 190.916 35.528C189.097 29.5023 186.037 23.9138 181.913 19.1523C177.79 14.3908 172.709 10.5509 167.002 7.8807C161.308 5.2223 155.128 3.79268 148.854 3.68634C138.28 4.07624 127.54 6.51015 119.092 13.2211C110.881 19.7549 106.415 29.077 104.17 39.1434C103.957 40.1123 102.988 40.7267 102.019 40.514C101.051 40.3013 100.424 39.3325 100.649 38.3636C101.901 32.7633 103.815 27.2811 106.675 22.3069C101.972 23.4648 97.7542 25.8042 93.9852 28.8525C87.8295 33.8385 82.8908 40.6676 78.9328 47.4731C78.4365 48.3356 77.3259 48.631 76.4634 48.1347C75.6009 47.6385 75.3055 46.5279 75.8018 45.6654C79.8898 38.6118 84.9821 31.6172 91.3032 26.3713C87.4042 27.3874 83.5288 28.6989 79.9252 30.4712C77.6804 31.57 75.53 32.846 73.5333 34.3583C73.4624 34.4174 73.3915 34.4765 73.3206 34.5237C71.0994 36.2369 69.1026 38.2337 67.4839 40.5258C66.905 41.341 65.7826 41.5301 64.9673 40.963C64.1521 40.384 63.963 39.2616 64.5302 38.4463C65.0382 37.7374 65.5699 37.0404 66.137 36.3787C60.773 37.9619 55.5743 40.2541 51.0373 43.5623C47.6346 46.0434 44.7044 49.0209 42.3414 52.4945L42.3178 52.5299C40.8291 54.7039 39.6003 57.0315 38.6078 59.4772C38.2298 60.3988 37.1782 60.8359 36.2566 60.4697C35.3351 60.1034 34.8861 59.0401 35.2642 58.1185C35.6541 57.1496 36.0912 56.2044 36.552 55.2592C35.9258 55.6019 35.3114 55.9799 34.7207 56.3698C32.5467 57.8231 30.609 59.5954 28.8958 61.5685C28.6714 61.8166 28.3878 62.0056 28.0688 62.112C23.3073 64.0615 18.5931 66.4481 14.4223 69.4728C11.1259 71.8712 8.08946 74.7423 5.85641 78.1805C5.85641 78.2041 5.83278 78.2278 5.82096 78.2396C4.97027 79.5038 4.01325 81.2524 4.1314 82.8357C4.22592 84.1117 5.07661 85.0569 6.09271 85.7658C6.09271 85.7658 6.11634 85.7776 6.12815 85.7894C6.13997 85.7894 6.1636 85.8131 6.17541 85.8249C11.0787 89.6884 16.2891 93.2684 21.8304 96.1631C25.7176 98.1953 29.8056 99.9203 34.0472 101.066C34.1181 98.9278 34.2953 96.7775 34.5907 94.6626C34.7207 93.6701 35.6304 92.9848 36.6229 93.1148C37.6154 93.2448 38.3125 94.1545 38.1707 95.147C37.8044 97.8408 37.6154 100.558 37.639 103.276C37.639 103.335 37.639 103.382 37.639 103.429C37.7099 108.333 38.5133 113.153 40.262 117.737C42.4714 123.527 46.0159 128.466 50.5293 132.672C50.5293 132.672 50.5293 132.66 50.5293 132.648C50.9192 131.266 51.6872 130.108 52.7505 129.151H52.7741C55.0308 127.178 57.6065 125.736 60.5248 125.051C63.1242 124.448 65.7826 124.496 68.3701 125.039C66.5742 122.298 65.0737 119.368 63.904 116.296C60.5957 107.624 60.1231 98.4079 61.3637 89.2749C61.4937 88.2824 62.4034 87.5971 63.3959 87.7271C64.3884 87.8571 65.0855 88.7668 64.9437 89.7593C63.7858 98.278 64.1993 106.915 67.2831 115.008C69.7879 121.589 73.8523 127.201 79.0155 131.939C79.0391 131.821 79.0745 131.703 79.11 131.585C79.5353 130.084 80.3624 128.82 81.5203 127.78H81.5439C84.0369 125.618 86.8725 124.023 90.0862 123.267C93.2999 122.511 96.5845 122.688 99.7628 123.491C99.8455 123.515 99.9282 123.539 100.011 123.574C100.07 123.161 100.129 122.735 100.188 122.322C98.7939 119.923 97.5888 117.407 96.5963 114.819C92.8628 105.036 92.3311 94.6271 93.7371 84.3362C93.867 83.3437 94.7768 82.6584 95.7693 82.7884C96.7617 82.9184 97.4588 83.8281 97.317 84.8206C95.9938 94.509 96.4664 104.327 99.9754 113.543C102.882 121.176 107.62 127.65 113.646 133.097C113.693 132.825 113.752 132.565 113.835 132.294C114.295 130.64 115.217 129.245 116.493 128.099H116.517C119.305 125.677 122.495 123.881 126.099 123.042C129.702 122.204 133.389 122.393 136.957 123.302C137.146 123.35 137.323 123.432 137.488 123.527C138.245 118.742 138.386 113.898 137.866 109.065C137.039 101.433 134.594 94.2018 131.002 87.4317C130.529 86.5456 130.872 85.4468 131.758 84.986C132.644 84.5134 133.731 84.856 134.204 85.7304C138.02 92.9021 140.596 100.582 141.47 108.675C141.576 109.68 141.659 110.684 141.718 111.7C142.604 111.676 143.49 111.641 144.365 111.582C144.424 111.582 144.483 111.582 144.53 111.57C145.901 111.475 147.271 111.322 148.63 111.097C151.005 110.707 153.368 110.105 155.589 109.195C155.672 109.16 155.743 109.124 155.825 109.101C158.236 108.356 160.528 107.293 162.584 105.84C164.309 104.623 165.821 103.169 167.121 101.504C165.986 97.6754 165.218 93.741 164.769 89.7593C164.663 88.7668 165.384 87.8689 166.364 87.7626C167.357 87.6562 168.255 88.3769 168.361 89.3576C169.224 96.9665 171.303 104.316 174.942 111.074C177.246 115.351 180.105 119.262 183.437 122.782L183.473 122.759ZM168.491 105.473C167.345 106.702 166.081 107.801 164.699 108.77C162.347 110.424 159.736 111.653 156.983 112.515C154.502 113.531 151.891 114.217 149.244 114.642C148.535 114.76 147.815 114.855 147.094 114.949C147.968 117.253 149.032 119.533 150.402 121.577C150.898 122.322 151.43 123.031 152.021 123.704C152.127 122.818 152.364 121.967 152.765 121.164C152.931 120.833 153.202 120.549 153.533 120.384C156.133 119.002 158.909 117.903 161.804 117.348C164.474 116.828 167.168 116.78 169.838 117.265C170.24 117.336 170.594 117.537 170.878 117.844C170.937 117.915 170.996 117.986 171.043 118.068C171.953 119.415 172.532 120.987 172.91 122.558C172.969 122.83 173.04 123.09 173.087 123.361C174.529 122.156 175.332 120.609 175.45 118.683C174.115 116.792 172.886 114.807 171.788 112.775C170.523 110.424 169.425 107.99 168.491 105.485V105.473ZM162.111 134.869C161.579 135.696 160.8 136.157 159.795 136.134C158.98 136.11 158.236 135.72 157.609 135.212C155.967 133.9 154.301 131.301 153.191 129.505C150.839 127.981 148.937 125.89 147.389 123.574C145.688 121.01 144.377 118.139 143.349 115.244C142.841 115.268 142.344 115.28 141.836 115.292C141.789 120.963 140.903 126.552 139.32 131.998C139.32 133.333 139.225 134.668 139.095 136.004C139.095 137.362 139.013 139.17 138.445 140.411C138.091 141.179 137.547 141.805 136.744 142.088C136.673 142.124 136.59 142.147 136.52 142.171C135.633 142.407 134.783 142.171 134.015 141.722C133.767 141.568 133.518 141.391 133.294 141.202C133.294 141.238 133.27 141.273 133.259 141.297C132.88 142.396 132.231 143.293 131.167 143.79C130.128 144.274 129.005 144.203 127.93 143.884C127.02 143.612 126.11 143.14 125.283 142.632C125.212 142.88 125.142 143.116 125.035 143.341C124.586 144.333 123.842 145.007 122.743 145.16C121.81 145.29 120.888 144.936 120.108 144.451C118.053 143.164 115.784 140.269 114.331 138.331C110.136 134.964 106.356 131.124 103.189 126.776C102.87 128.336 102.492 129.883 102.043 131.408C102.043 132.577 101.96 133.759 101.842 134.917C101.842 136.878 101.594 140.222 99.1248 140.611C98.215 140.753 97.3407 140.34 96.62 139.808C96.2655 140.765 95.6629 141.545 94.7177 141.982C93.7607 142.431 92.7092 142.372 91.7167 142.077C90.9842 141.864 90.2753 141.509 89.6136 141.12C89.1056 142.856 87.924 143.66 85.9982 143.116C83.7888 142.502 80.965 138.898 79.618 137.114C76.936 134.964 74.4312 132.577 72.1982 129.966C71.9973 130.829 71.7728 131.703 71.5247 132.554C71.5247 133.605 71.4538 134.657 71.3475 135.696C71.3475 137.563 71.0875 140.611 68.7482 140.978C67.9565 141.096 67.2004 140.789 66.5505 140.352C66.1488 141.297 65.4754 142.006 64.4475 142.336C63.0651 142.774 61.5173 142.195 60.2767 141.509C59.7569 143.081 58.599 143.707 56.8622 143.223C54.83 142.655 52.2779 139.418 51.0491 137.788C44.7753 132.743 39.8484 126.552 36.9655 118.99C35.2287 114.429 34.3426 109.644 34.1536 104.788C29.3212 103.583 24.6542 101.657 20.2472 99.3413C14.5169 96.3403 9.11737 92.654 4.0487 88.6605C2.12284 87.2899 0.799547 85.4822 0.62232 83.0838C0.445094 80.6144 1.57934 78.2041 2.92626 76.2074C2.93808 76.1838 2.94989 76.1719 2.96171 76.1601C5.43106 72.3557 8.73929 69.1892 12.402 66.5308C16.7263 63.388 21.6059 60.9068 26.5328 58.8628C28.3878 56.7716 30.4791 54.9048 32.8066 53.357C34.9806 51.9037 37.32 50.7695 39.7894 49.9542C42.3296 46.3506 45.437 43.2433 48.9933 40.644C55.6688 35.7761 63.6086 32.9287 71.6547 31.31C73.7696 29.7386 76.0381 28.3917 78.4011 27.2338C85.0293 23.9847 92.5083 22.1179 99.7628 20.9718C102.835 19.5186 106.084 18.5615 109.451 18.1244C111.59 15.2297 114.071 12.6304 116.895 10.3855C125.933 3.16648 137.37 0.484451 148.76 0.0709229C148.819 0.0709229 148.866 0.0709229 148.914 0.0709229C155.707 0.189074 162.395 1.72504 168.538 4.5961C174.706 7.47899 180.2 11.6261 184.654 16.7775C189.109 21.9288 192.429 27.9664 194.39 34.4883C196.351 41.0102 196.906 47.863 196.032 54.6212C195.796 56.4407 195.323 58.2012 194.591 59.8671C200.746 67.5115 204.846 76.7509 207.41 86.1793C210.517 97.5691 211.593 109.857 211.002 121.625V121.648C210.896 124.118 210.671 127.887 209.69 130.179C209.324 131.029 208.769 131.833 207.918 132.258C206.926 132.754 205.933 132.624 205 132.057C204.787 131.927 204.586 131.774 204.385 131.608C203.996 132.494 203.511 133.381 202.909 134.125C202.2 134.999 201.314 135.685 200.179 135.885C199.021 136.086 197.97 135.708 197.048 135.023C197.025 134.999 196.989 134.976 196.966 134.964C196.883 135.247 196.788 135.531 196.658 135.791C196.28 136.606 195.713 137.28 194.839 137.575C193.941 137.894 193.067 137.693 192.263 137.221C191.07 136.512 189.971 135.058 189.203 133.924C188.341 132.92 187.525 131.868 186.769 130.781C183.685 128.253 180.826 125.453 178.262 122.381C177.341 124.59 175.651 126.209 173.56 127.39C173.583 127.745 173.595 128.099 173.607 128.442C173.607 128.56 173.607 128.69 173.595 128.808C173.43 130.049 173.123 131.679 172.449 132.754C172 133.475 171.374 133.995 170.523 134.137C169.779 134.267 169.094 134.066 168.479 133.652C168.066 134.586 167.428 135.377 166.424 135.767C164.935 136.346 163.34 135.696 162.064 134.869H162.111Z" fill="black"/>
<path fill-rule="evenodd" clip-rule="evenodd" d="M42.0933 52.2936L16.6554 67.5469C15.8283 68.0786 15.0249 68.6221 14.2687 69.1774C10.547 71.883 7.6523 74.825 5.59647 78.0032V78.0269C4.33225 79.9055 3.75332 81.5005 3.84784 82.8356C3.93054 84.0408 4.63945 85.1041 5.95092 86.0257L6.02181 86.073C9.66086 88.944 13.2172 91.437 16.6672 93.5637C18.3686 94.6153 20.0581 95.5723 21.7241 96.4466C26.0957 98.7387 30.3373 100.416 34.4371 101.492C34.4844 99.2822 34.6734 97.0137 34.9924 94.6862C35.0988 93.8827 35.8313 93.3274 36.6347 93.4338C37.4381 93.5401 37.9935 94.2726 37.8871 95.0761C37.4972 97.8999 37.32 100.629 37.3554 103.264C37.3554 103.311 37.3554 103.358 37.3554 103.394C37.4263 108.581 38.3125 113.401 40.002 117.832C42.2114 123.621 45.8032 128.773 50.7892 133.298C50.8247 133.097 50.8719 132.908 50.931 132.707C51.2854 131.431 51.9943 130.32 53.0459 129.375H53.0577C55.4089 127.319 57.9491 125.984 60.6666 125.358C63.3605 124.732 66.2079 124.791 69.2089 125.547C67.1886 122.593 65.5463 119.462 64.2939 116.154C61.2574 108.203 60.4185 99.2468 61.7772 89.3103C61.8836 88.5069 62.6161 87.9516 63.4195 88.0579C64.223 88.1642 64.7783 88.8968 64.6719 89.7002C63.3841 99.1523 64.1757 107.624 67.035 115.114C69.5398 121.672 73.6278 127.497 79.3108 132.589C79.3581 132.27 79.429 131.963 79.5117 131.656C79.9016 130.261 80.6696 129.056 81.8156 128.028H81.8275C84.4268 125.76 87.227 124.295 90.228 123.586C93.229 122.889 96.3955 122.96 99.7391 123.81C99.9636 123.869 100.176 123.976 100.342 124.118C100.448 123.491 100.531 122.853 100.613 122.227C99.1956 119.805 97.9905 117.288 96.9862 114.665C93.5598 105.686 92.6146 95.5841 94.1506 84.348C94.2569 83.5445 94.9895 82.9892 95.7929 83.0956C96.5963 83.2019 97.1516 83.9344 97.0453 84.7379C95.5802 95.4778 96.4782 105.107 99.7273 113.626C102.61 121.187 107.36 127.887 113.965 133.747C114.012 133.262 114.106 132.802 114.236 132.353C114.673 130.817 115.524 129.47 116.788 128.336H116.8C119.718 125.795 122.873 124.141 126.229 123.35C129.596 122.558 133.152 122.652 136.921 123.61C137.288 123.704 137.583 123.917 137.772 124.212C138.634 119.096 138.8 114.027 138.256 109.006C137.465 101.669 135.161 94.4144 131.356 87.2545C130.978 86.5456 131.25 85.6476 131.959 85.2695C132.668 84.8914 133.566 85.1632 133.944 85.8721C137.926 93.3629 140.336 100.972 141.163 108.687C141.281 109.798 141.364 110.908 141.423 112.031C142.451 112.019 143.455 111.972 144.436 111.901H144.589C146.031 111.783 147.401 111.629 148.725 111.405C151.312 110.979 153.663 110.329 155.766 109.467L155.967 109.384C158.543 108.581 160.823 107.482 162.82 106.076C164.616 104.812 166.187 103.299 167.534 101.527C166.412 97.7699 165.608 93.8237 165.136 89.6766C165.053 88.8731 165.632 88.1524 166.435 88.0579C167.239 87.9752 167.959 88.5541 168.054 89.3457C168.964 97.4036 171.173 104.682 174.67 111.192C177.069 115.634 180.07 119.722 183.674 123.444C183.674 123.054 183.827 122.676 184.099 122.404C186.639 119.521 189.522 117.454 192.712 116.213C195.938 114.961 199.459 114.536 203.287 114.973H203.31C205.106 115.209 206.63 115.882 207.883 116.993C208.013 107.045 206.902 96.6829 204.267 87.0063C201.81 77.9796 198.017 69.5555 192.653 62.6436C190.68 65.5265 187.821 67.9604 184.063 69.9454C177.459 73.4308 168.03 75.4984 155.802 76.1483C154.998 76.1837 154.313 75.5693 154.266 74.7659C154.23 73.9625 154.845 73.2772 155.648 73.23C167.451 72.6038 176.466 70.6424 182.693 67.3578C188.671 64.2032 192.039 59.808 192.795 54.1604C193.622 47.8039 193.067 41.4119 191.247 35.3862C189.439 29.3723 186.367 23.7365 182.173 18.8805C177.967 14.0245 172.839 10.1728 167.144 7.52622C161.473 4.87963 155.235 3.41456 148.843 3.30823C136.342 3.76902 126.359 6.97091 118.88 12.9139C111.412 18.8451 106.403 27.5528 103.839 39.0371C103.662 39.8287 102.882 40.3249 102.102 40.1477C101.311 39.9705 100.814 39.1907 100.992 38.4109C102.409 32.0662 104.536 26.5131 107.395 21.7516C102.646 22.7795 98.1087 25.048 93.7843 28.5571C88.4203 32.905 83.3752 39.1434 78.661 47.2722C78.2593 47.9693 77.3614 48.2056 76.6643 47.8039C75.9672 47.4022 75.7309 46.5042 76.1326 45.8071C81.0358 37.3593 86.3054 30.861 91.953 26.2886L92.7919 25.6269C87.865 26.8085 83.5406 28.309 79.8071 30.1403C77.4086 31.3218 75.2583 32.6215 73.356 34.0747L73.167 34.2165C70.804 36.036 68.8308 38.0682 67.2476 40.3013C66.7868 40.9629 65.8771 41.1165 65.2154 40.6557C64.5538 40.195 64.4002 39.2852 64.861 38.6235C65.5817 37.6074 66.3733 36.6268 67.2358 35.6934C60.832 37.4657 55.3853 39.9823 50.8837 43.2551C47.3865 45.7953 44.4681 48.8082 42.1051 52.27L42.0815 52.2936C40.6164 54.4558 39.364 56.7833 38.3361 59.3C38.0289 60.0443 37.1782 60.3988 36.4339 60.1034C35.6895 59.7962 35.3351 58.9455 35.6304 58.2012C36.1621 56.8897 36.7647 55.6255 37.4027 54.3967C36.4339 54.8811 35.4887 55.4246 34.5671 56.039C32.464 57.445 30.5027 59.1936 28.6713 61.2967C28.4823 61.5094 28.246 61.663 27.9979 61.7339C23.6972 63.4943 19.9164 65.4202 16.6554 67.5114L42.0933 52.2936Z" fill="#FBF8E7"/>
<path fill-rule="evenodd" clip-rule="evenodd" d="M164.498 108.486C162.253 110.058 159.713 111.298 156.865 112.184C154.549 113.13 151.985 113.838 149.185 114.299C148.346 114.441 147.496 114.547 146.61 114.642C147.638 117.418 148.795 119.793 150.107 121.755C150.804 122.794 151.537 123.716 152.304 124.531C152.316 123.373 152.576 122.298 153.072 121.317C153.214 121.034 153.427 120.821 153.687 120.679C156.475 119.191 159.193 118.198 161.863 117.678C164.557 117.159 167.192 117.135 169.779 117.596C170.11 117.655 170.405 117.82 170.606 118.056L170.748 118.246C171.539 119.427 172.142 120.88 172.567 122.617C172.674 123.042 172.768 123.491 172.851 123.964C174.718 122.605 175.698 120.809 175.793 118.565C174.434 116.65 173.194 114.654 172.083 112.586C170.748 110.093 169.578 107.506 168.609 104.8C167.381 106.182 166.01 107.399 164.498 108.463" fill="#FBF8E7"/>
<path fill-rule="evenodd" clip-rule="evenodd" d="M168.633 120.384C166.612 120.089 164.545 120.148 162.418 120.561C160.173 120.998 157.869 121.825 155.506 123.031C155.305 123.562 155.211 124.141 155.223 124.779C155.234 125.606 155.435 126.54 155.825 127.568C157.397 130.131 158.625 131.786 159.535 132.565C159.582 132.329 159.618 132.022 159.642 131.656C159.689 130.852 160.398 130.238 161.201 130.297C161.567 130.32 161.898 130.486 162.146 130.734C163.765 132.258 164.817 132.92 165.301 132.743C165.738 132.577 165.974 131.431 165.986 129.316C165.986 128.513 166.648 127.863 167.451 127.863C168.007 127.863 168.491 128.182 168.739 128.643C169.2 129.517 169.602 130.155 169.932 130.557C170.098 130.084 170.251 129.399 170.37 128.501C170.299 126.516 170.086 124.803 169.732 123.338C169.448 122.18 169.082 121.199 168.633 120.384Z" fill="#F8A597"/>
<path fill-rule="evenodd" clip-rule="evenodd" d="M136 129.954C135.905 128.595 135.716 127.367 135.409 126.256C132.408 125.594 129.56 125.583 126.902 126.197C123.995 126.87 121.266 128.312 118.714 130.521C117.887 131.278 117.32 132.14 117.048 133.144C116.776 134.101 116.765 135.212 116.989 136.453C119.08 139.229 120.699 140.978 121.845 141.687L122.117 141.852C122.282 141.368 122.341 140.541 122.282 139.383C122.247 138.579 122.873 137.894 123.676 137.859C124.043 137.847 124.385 137.965 124.657 138.178C126.406 139.584 127.812 140.434 128.863 140.753C129.3 140.883 129.608 140.907 129.797 140.824C129.938 140.765 130.057 140.576 130.163 140.257C130.411 139.524 130.47 138.402 130.34 136.878C130.269 136.074 130.872 135.366 131.675 135.295C132.242 135.247 132.762 135.531 133.046 135.992C134.097 137.457 134.924 138.402 135.562 138.839C135.751 138.248 135.846 137.28 135.834 135.909C135.834 135.862 135.834 135.803 135.834 135.755C136.059 133.629 136.106 131.691 136 129.966" fill="#FDAA9C"/>
<path fill-rule="evenodd" clip-rule="evenodd" d="M98.5694 134.668C98.7703 132.802 98.8175 131.1 98.7112 129.588C98.6285 128.442 98.4749 127.402 98.2268 126.457C95.6393 125.902 93.1935 125.89 90.8896 126.433C88.3493 127.024 85.9745 128.288 83.7415 130.214C83.0326 130.852 82.5599 131.596 82.3236 132.447C82.0992 133.262 82.0755 134.196 82.2764 135.247C84.474 138.166 85.9981 139.737 86.8488 139.973C86.9433 139.997 86.6716 139.253 86.6125 137.906C86.5771 137.102 87.2033 136.417 88.0067 136.382C88.373 136.37 88.7156 136.488 88.9874 136.701C90.5115 137.929 91.7285 138.674 92.6382 138.945C92.9809 139.052 93.2172 139.075 93.3353 139.016C93.4062 138.981 93.4889 138.851 93.5716 138.615C93.7843 137.988 93.8315 137.02 93.7252 135.696C93.6543 134.893 94.2569 134.184 95.0603 134.113C95.6274 134.066 96.1473 134.349 96.4309 134.81C97.6833 136.559 98.404 137.421 98.6167 137.386C98.6403 137.386 98.5812 136.535 98.5694 134.822C98.5694 134.775 98.5694 134.716 98.5694 134.668Z" fill="#FDAA9C"/>
<path fill-rule="evenodd" clip-rule="evenodd" d="M68.0391 135.448C68.2164 133.782 68.2518 132.258 68.1691 130.899C68.0982 129.907 67.9682 129.021 67.7556 128.206C65.4871 127.733 63.3367 127.733 61.3164 128.206C59.0597 128.737 56.9448 129.86 54.948 131.561C54.3336 132.116 53.9201 132.754 53.7192 133.487C53.5184 134.184 53.5066 134.987 53.672 135.897C55.6215 138.473 56.9566 139.855 57.6773 140.068C57.9018 140.127 57.3228 139.442 57.2756 138.355C57.2401 137.551 57.8663 136.866 58.6698 136.831C59.036 136.819 59.3787 136.937 59.6504 137.15C61.5881 138.709 62.8405 139.394 63.4076 139.205C63.7266 139.099 63.8093 138.154 63.6676 136.37C63.5967 135.566 64.1992 134.857 65.0027 134.787C65.5698 134.739 66.0896 135.023 66.3732 135.484C67.4602 137.008 68.0628 137.752 68.1927 137.728C68.2991 137.717 68.0273 137.02 68.0273 135.566C68.0273 135.519 68.0273 135.46 68.0273 135.413" fill="#FDAA9C"/>
<path fill-rule="evenodd" clip-rule="evenodd" d="M184.063 69.969C177.459 73.4545 168.03 75.5221 155.802 76.172C154.998 76.2074 154.313 75.593 154.266 74.7896C154.23 73.9862 154.845 73.3009 155.648 73.2536C167.451 72.6274 176.466 70.6661 182.693 67.3815C188.671 64.2269 192.038 59.8317 192.795 54.1841C193.492 48.82 193.196 43.4323 192.003 38.2573C190.822 56.0981 178.522 65.9046 155.104 67.6887C133.093 67.9368 116.008 61.9938 103.815 49.8597C115.394 72.4384 136.767 83.6273 167.924 83.4382C167.676 85.0924 167.475 86.711 167.357 88.2824C167.723 88.5069 167.995 88.8968 168.042 89.3694C168.952 97.4273 171.161 104.705 174.658 111.216C177.057 115.658 180.058 119.746 183.662 123.468C183.662 123.078 183.815 122.7 184.087 122.428C184.725 121.696 185.398 121.022 186.072 120.396C186.722 119.734 187.372 119.203 188.021 118.801C180.271 107.317 177.73 94.2254 180.377 79.5274C187.691 73.9625 192.098 68.7639 193.598 63.9315C193.279 63.4944 192.96 63.069 192.629 62.6437C190.656 65.5266 187.797 67.9605 184.04 69.9454" fill="#C5CACD"/>
<path fill-rule="evenodd" clip-rule="evenodd" d="M162.879 83.3791C157.089 92.4767 149.126 97.3918 139.024 98.1362C140.076 101.633 140.785 105.154 141.163 108.699C141.281 109.809 141.364 110.92 141.423 112.043C142.451 112.031 143.455 111.983 144.435 111.913H144.589C146.031 111.794 147.401 111.641 148.724 111.416C151.312 110.991 153.663 110.341 155.766 109.479L155.967 109.396C158.543 108.593 160.823 107.494 162.82 106.088C164.616 104.824 166.187 103.311 167.534 101.539C166.412 97.7817 165.608 93.8355 165.136 89.6884C165.053 88.885 165.632 88.1642 166.435 88.0697C166.778 88.0343 167.097 88.117 167.369 88.2824C167.499 86.711 167.688 85.0923 167.936 83.4382C166.223 83.4382 164.533 83.4264 162.879 83.3673" fill="#C5CACD"/>
<path fill-rule="evenodd" clip-rule="evenodd" d="M193.763 118.966C191.211 119.959 188.884 121.577 186.781 123.822C187.159 124.897 187.691 126.032 188.388 127.213C189.262 128.69 190.384 130.226 191.743 131.833L191.897 132.022C192.665 133.156 193.291 133.9 193.775 134.279C194.047 133.558 194.212 132.294 194.236 130.474C194.224 129.954 194.496 129.446 194.98 129.163C195.678 128.761 196.575 129.009 196.977 129.718C197.722 131.041 198.419 131.927 199.033 132.388C199.305 132.589 199.517 132.684 199.671 132.648C199.872 132.613 200.108 132.424 200.392 132.069C201.077 131.218 201.75 129.718 202.4 127.556C202.495 127.225 202.719 126.93 203.027 126.741C203.712 126.315 204.61 126.528 205.047 127.213C205.661 128.206 206.169 128.855 206.583 129.163L206.713 128.879C207.245 127.65 207.587 125.287 207.753 121.802C206.725 119.486 205.141 118.198 202.991 117.915C199.636 117.537 196.564 117.891 193.787 118.978" fill="#FDAA9C"/>
<path fill-rule="evenodd" clip-rule="evenodd" d="M156.877 112.184C154.561 113.13 151.997 113.838 149.197 114.299C148.358 114.441 147.507 114.547 146.621 114.642C147.649 117.418 148.807 119.793 150.119 121.755C150.816 122.794 151.548 123.716 152.316 124.531C152.328 123.373 152.588 122.298 153.084 121.317C153.226 121.034 153.439 120.821 153.699 120.679C156.487 119.191 159.204 118.198 161.875 117.678C162.713 117.513 163.541 117.407 164.368 117.336C163.671 115.788 163.044 113.259 162.489 109.762C160.776 110.743 158.909 111.546 156.877 112.184Z" fill="#C5CACD"/>
<path fill-rule="evenodd" clip-rule="evenodd" d="M37.3435 103.406C37.4144 108.593 38.3006 113.413 39.9901 117.844C42.1995 123.633 45.7913 128.785 50.7773 133.31C50.8127 133.109 50.86 132.92 50.9191 132.719C51.2735 131.443 51.9824 130.332 53.034 129.387H53.0458C54.44 128.17 55.9051 127.201 57.4292 126.492C46.1458 121.164 41.278 103.548 42.8376 73.6317C37.6389 78.5822 33.8935 84.1117 31.6014 90.2437C26.8872 90.3264 21.9012 89.5939 16.6553 88.0343C12.5437 86.8174 8.2666 85.0924 3.83594 82.8711C3.91864 84.0763 4.62755 85.1396 5.93902 86.0612L6.00991 86.1084C9.64896 88.9795 13.2053 91.4725 16.6553 93.5992C18.3567 94.6508 20.0462 95.6078 21.7122 96.4821C26.0838 98.7742 30.3254 100.452 34.4252 101.527C34.4725 99.3177 34.6615 97.0492 34.9805 94.7217C35.0869 93.9182 35.8194 93.3629 36.6228 93.4693C37.4262 93.5756 37.9816 94.3081 37.8752 95.1116C37.4853 97.9354 37.3081 100.665 37.3435 103.299C37.3435 103.347 37.3435 103.394 37.3435 103.429" fill="#C5CACD"/>
<path fill-rule="evenodd" clip-rule="evenodd" d="M88.5975 124.047C77.3259 116.402 70.8984 97.2737 69.327 66.6608C66.2669 72.1784 64.6483 79.551 64.4947 88.8023C64.6364 89.0622 64.6955 89.3694 64.6601 89.6884C64.601 90.1492 64.5419 90.5982 64.4828 91.0589C63.4431 99.9557 64.2938 107.978 67.0113 115.114C69.5161 121.672 73.6041 127.497 79.2872 132.589C79.3344 132.27 79.4053 131.963 79.488 131.656C79.8779 130.261 80.6459 129.056 81.792 128.028H81.8038C83.9305 126.173 86.199 124.85 88.5856 124.047" fill="#C5CACD"/>
<path fill-rule="evenodd" clip-rule="evenodd" d="M126.229 123.35C114.886 114.063 106.604 93.9654 101.381 63.0453C98.3214 69.7326 96.8681 76.8099 97.0217 84.277C97.0453 84.4306 97.0571 84.5842 97.0217 84.7378C95.5566 95.4777 96.4546 105.107 99.7037 113.626C102.587 121.187 107.336 127.887 113.941 133.747C113.988 133.262 114.083 132.802 114.213 132.353C114.65 130.817 115.501 129.47 116.765 128.336H116.777C119.695 125.795 122.849 124.141 126.205 123.35" fill="#C5CACD"/>
<path fill-rule="evenodd" clip-rule="evenodd" d="M138.457 26.7612C140.95 26.7612 142.971 29.2778 142.971 32.3734C142.971 35.469 140.95 37.9856 138.457 37.9856C135.964 37.9856 133.944 35.469 133.944 32.3734C133.944 29.2778 135.964 26.7612 138.457 26.7612Z" fill="black"/>
<path fill-rule="evenodd" clip-rule="evenodd" d="M173.382 26.7612C175.875 26.7612 177.896 29.2778 177.896 32.3734C177.896 35.469 175.875 37.9856 173.382 37.9856C170.89 37.9856 168.869 35.469 168.869 32.3734C168.869 29.2778 170.89 26.7612 173.382 26.7612Z" fill="black"/>
<path d="M152.801 47.1541C152.942 47.8984 153.214 48.5955 153.604 49.2217C154.159 50.1079 154.939 50.8522 155.884 51.3603C156.83 51.8683 157.881 52.1046 158.933 52.0692C159.972 52.0337 161 51.7265 161.922 51.1594C162.843 50.5923 163.564 49.8007 164.06 48.8791C164.415 48.2174 164.639 47.4967 164.722 46.7524C164.214 46.7051 163.718 46.6106 163.221 46.4688C161.851 46.0789 160.622 45.3346 159.653 44.3539C159.263 43.964 158.921 43.5387 158.614 43.0779C158.436 43.3969 158.247 43.7041 158.023 43.9995C157.302 44.9683 156.369 45.7835 155.258 46.3507C154.478 46.7524 153.651 47.0241 152.801 47.1423M151.702 45.2991H151.714C152.623 45.2755 153.521 45.051 154.36 44.6257C155.187 44.2003 155.896 43.5859 156.44 42.8534C156.983 42.1209 157.361 41.2584 157.515 40.3368C157.609 39.8051 158.117 39.4506 158.649 39.5452C159.051 39.6161 159.346 39.9114 159.429 40.2895C159.724 41.3292 160.28 42.2508 161.012 42.9834C161.756 43.7277 162.69 44.2948 163.741 44.5902C164.793 44.8856 165.88 44.9092 166.908 44.6729C167.936 44.4366 168.905 43.9286 169.708 43.196C170.11 42.8298 170.724 42.8652 171.09 43.2551C171.457 43.6568 171.421 44.2712 171.031 44.6375C169.98 45.5945 168.704 46.2561 167.357 46.5751C167.132 46.6224 166.908 46.6697 166.671 46.7051C166.577 47.8039 166.27 48.8555 165.762 49.8007C165.112 51.0176 164.155 52.0692 162.938 52.8253C161.733 53.5815 160.362 53.9832 158.98 54.0305C157.609 54.0777 156.215 53.7705 154.963 53.0971C153.699 52.4236 152.671 51.443 151.938 50.2733C151.371 49.3517 150.981 48.3238 150.816 47.225C149.918 47.1423 149.02 46.8942 148.181 46.5043C147.696 46.2798 147.484 45.689 147.72 45.2046C147.945 44.7202 148.535 44.5075 149.02 44.7438C149.87 45.1455 150.78 45.3346 151.69 45.3227L151.702 45.2991Z" fill="black"/>
<path fill-rule="evenodd" clip-rule="evenodd" d="M155.258 46.3625C154.478 46.7642 153.651 47.0359 152.801 47.1541C152.942 47.8984 153.214 48.5955 153.604 49.2217C154.159 50.1079 154.939 50.8522 155.884 51.3603C156.829 51.8683 157.881 52.1046 158.933 52.0692C159.972 52.0337 161 51.7265 161.922 51.1594C162.843 50.5923 163.564 49.8007 164.06 48.8791C164.415 48.2174 164.639 47.4967 164.722 46.7524C164.214 46.7051 163.718 46.6106 163.221 46.4688C161.851 46.0789 160.622 45.3346 159.653 44.3539C159.263 43.964 158.921 43.5387 158.614 43.0779C158.436 43.3969 158.247 43.7041 158.023 43.9995C157.302 44.9683 156.369 45.7835 155.258 46.3507" fill="black"/>
<path fill-rule="evenodd" clip-rule="evenodd" d="M158.779 47.7094C156.983 47.7685 155.376 48.82 154.608 50.4387C154.986 50.7931 155.424 51.1003 155.884 51.3603C156.83 51.8683 157.881 52.1046 158.933 52.0692C159.972 52.0337 161 51.7265 161.922 51.1594C162.371 50.8758 162.784 50.5332 163.139 50.1551C162.253 48.5955 160.575 47.6503 158.791 47.7094" fill="#FF6666"/>
<path d="M151.324 40.5258C151.076 41.0102 150.497 41.1993 150.012 40.963C149.528 40.7149 149.339 40.1359 149.587 39.6515C150.378 38.0801 151.56 36.7923 152.99 35.8707C154.419 34.9491 156.073 34.3938 157.834 34.3111C159.594 34.2284 161.296 34.6183 162.808 35.3981C164.308 36.1779 165.608 37.3594 166.553 38.8481C166.837 39.3089 166.707 39.8996 166.246 40.195C165.785 40.4786 165.195 40.3486 164.899 39.8878C164.155 38.7063 163.103 37.7611 161.898 37.1349C160.693 36.5087 159.323 36.1897 157.917 36.2606C156.511 36.3315 155.175 36.7686 154.041 37.513C152.907 38.2573 151.95 39.2852 151.324 40.5495" fill="#989BAA"/>
<path d="M153.226 57.5278C152.777 57.2206 152.671 56.618 152.966 56.169C153.273 55.72 153.876 55.6137 154.325 55.9091C156.156 57.1615 157.917 57.7641 159.606 57.6932C161.284 57.6341 162.938 56.9134 164.568 55.5428C164.982 55.2002 165.596 55.2474 165.939 55.661C166.282 56.0745 166.234 56.6889 165.821 57.0315C163.848 58.6974 161.804 59.5599 159.677 59.6427C157.562 59.7254 155.412 59.0165 153.226 57.5159" fill="#989BAA"/>
<path fill-rule="evenodd" clip-rule="evenodd" d="M133.483 42.1681C136.685 42.1681 139.284 43.5859 139.284 45.3464C139.284 47.1068 136.685 48.5246 133.483 48.5246C130.281 48.5246 127.682 47.1068 127.682 45.3464C127.682 43.5859 130.281 42.1681 133.483 42.1681Z" fill="#C5CACD"/>
<path fill-rule="evenodd" clip-rule="evenodd" d="M180.129 41.8018C183.26 41.8018 185.812 43.2196 185.812 44.98C185.812 46.7405 183.272 48.1583 180.129 48.1583C176.986 48.1583 174.446 46.7405 174.446 44.98C174.446 43.2196 176.986 41.8018 180.129 41.8018Z" fill="#C5CACD"/>
<path fill-rule="evenodd" clip-rule="evenodd" d="M117.769 154.14C171.185 154.14 214.487 155.451 214.487 157.07C214.487 158.689 171.185 160 117.769 160C64.3529 160 21.0505 158.689 21.0505 157.07C21.0505 155.451 64.3529 154.14 117.769 154.14Z" fill="#353434"/>
</g>
<defs>
<clipPath id="clip0_11576_10353">
<rect width="213.995" height="160" fill="white" transform="translate(0.480469)"/>
</clipPath>
</defs>
</svg>
